<svg width="200" height="90" viewBox="0 0 197 33" fill="none" xmlns="http://www.w3.org/2000/svg">
    <g filter="url(#filter0_d_2_33)">
        <path
            d="M14.836 0.759999C15.508 0.759999 16.0867 0.806665 16.572 0.899999C17.076 0.974665 17.5427 1.08667 17.972 1.236C17.972 1.55333 17.972 1.88933 17.972 2.244C17.9907 2.59867 18 2.98133 18 3.392C18 3.80267 17.9907 4.24133 17.972 4.708C17.972 5.156 17.972 5.576 17.972 5.968C17.2627 5.52 16.4133 5.296 15.424 5.296C14.4907 5.296 13.7067 5.47333 13.072 5.828C12.456 6.164 11.952 6.60267 11.56 7.144C11.1867 7.68533 10.916 8.28267 10.748 8.936C10.5987 9.57067 10.524 10.1773 10.524 10.756C10.524 11.54 10.6453 12.2773 10.888 12.968C11.1307 13.6587 11.4667 14.2653 11.896 14.788C12.344 15.292 12.8573 15.6933 13.436 15.992C14.0333 16.2907 14.6773 16.44 15.368 16.44C15.6853 16.44 16.0867 16.3933 16.572 16.3C17.076 16.2067 17.5427 16.0293 17.972 15.768C17.972 16.4213 17.972 17.1027 17.972 17.812C17.9907 18.5213 18 19.212 18 19.884C18 20.5933 17.9907 21.284 17.972 21.956C17.972 22.628 17.972 23.3 17.972 23.972C16.9267 24.196 15.8627 24.308 14.78 24.308C13.1373 24.308 11.6627 24.0373 10.356 23.496C9.068 22.9547 7.96667 22.18 7.052 21.172C6.156 20.1453 5.46533 18.9133 4.98 17.476C4.51333 16.02 4.28 14.396 4.28 12.604C4.28 10.8867 4.504 9.30933 4.952 7.872C5.4 6.416 6.06267 5.16533 6.94 4.12C7.836 3.056 8.93733 2.23467 10.244 1.656C11.5693 1.05867 13.1 0.759999 14.836 0.759999ZM32.6055 1.096C32.5495 2.272 32.5028 3.38267 32.4655 4.428C32.4468 5.47333 32.4282 6.50933 32.4095 7.536C32.3908 8.544 32.3722 9.57067 32.3535 10.616C32.3535 11.6427 32.3535 12.744 32.3535 13.92C32.3535 15.3013 32.3535 16.804 32.3535 18.428C32.3722 20.052 32.3908 21.9093 32.4095 24H27.7615C27.7988 22.88 27.8268 21.7133 27.8455 20.5C27.8642 19.268 27.8828 17.868 27.9015 16.3H23.7575C23.7575 17.4013 23.7575 18.5867 23.7575 19.856C23.7762 21.1067 23.7948 22.488 23.8135 24H19.1655C19.1842 23.1787 19.2028 22.3387 19.2215 21.48C19.2402 20.6213 19.2588 19.6973 19.2775 18.708C19.2962 17.7187 19.3055 16.636 19.3055 15.46C19.3055 14.284 19.3055 12.9773 19.3055 11.54C19.3055 10.2707 19.3055 9.17867 19.3055 8.264C19.3055 7.33067 19.2962 6.48133 19.2775 5.716C19.2775 4.95067 19.2775 4.21333 19.2775 3.504C19.2775 2.776 19.2775 1.97333 19.2775 1.096H24.0095C23.9348 2.64533 23.8788 4.08267 23.8415 5.408C23.8042 6.71467 23.7762 8.04 23.7575 9.384H27.9015C27.9015 8.52533 27.9015 7.75067 27.9015 7.06C27.9015 6.35067 27.8922 5.67867 27.8735 5.044C27.8735 4.39067 27.8735 3.756 27.8735 3.14C27.8735 2.50533 27.8735 1.824 27.8735 1.096H32.6055ZM33.1458 24L37.2898 1.096H44.2058L48.3218 24H43.5898L42.8898 19.408H38.5778L37.9058 24H33.1458ZM39.3338 14.396H42.1338L40.7338 5.156L39.3338 14.396ZM62.7188 9.972L59.1068 23.02H56.5028L53.1148 10.336C53.1335 12.6133 53.1708 14.9093 53.2268 17.224C53.3015 19.5387 53.3575 21.7973 53.3948 24H48.9708C49.0082 22.0773 49.0362 20.1733 49.0548 18.288C49.0735 16.384 49.0828 14.4707 49.0828 12.548C49.0828 10.6253 49.0735 8.72133 49.0548 6.836C49.0362 4.932 49.0082 3.01867 48.9708 1.096H54.9628L57.9308 14.228L61.2628 1.096H66.9188C66.8628 4.904 66.8348 8.72133 66.8348 12.548C66.8348 16.3747 66.8628 20.192 66.9188 24H62.4388L62.7188 9.972ZM67.5989 24L71.7429 1.096H78.6589L82.7749 24H78.0429L77.3429 19.408H73.0309L72.3589 24H67.5989ZM73.7869 14.396H76.5869L75.1869 5.156L73.7869 14.396ZM96.6758 0.759999C97.3478 0.759999 97.9265 0.806665 98.4118 0.899999C98.9158 0.974665 99.3825 1.08667 99.8118 1.236C99.8118 1.55333 99.8118 1.88933 99.8118 2.244C99.8305 2.59867 99.8398 2.98133 99.8398 3.392C99.8398 3.80267 99.8305 4.24133 99.8118 4.708C99.8118 5.156 99.8118 5.576 99.8118 5.968C99.1025 5.52 98.2532 5.296 97.2638 5.296C96.3305 5.296 95.5465 5.47333 94.9118 5.828C94.2958 6.164 93.7918 6.60267 93.3998 7.144C93.0265 7.68533 92.7558 8.28267 92.5878 8.936C92.4385 9.57067 92.3638 10.1773 92.3638 10.756C92.3638 11.54 92.4852 12.2773 92.7278 12.968C92.9705 13.6587 93.3065 14.2653 93.7358 14.788C94.1838 15.292 94.6972 15.6933 95.2758 15.992C95.8732 16.2907 96.5172 16.44 97.2078 16.44C97.5252 16.44 97.9265 16.3933 98.4118 16.3C98.9158 16.2067 99.3825 16.0293 99.8118 15.768C99.8118 16.4213 99.8118 17.1027 99.8118 17.812C99.8305 18.5213 99.8398 19.212 99.8398 19.884C99.8398 20.5933 99.8305 21.284 99.8118 21.956C99.8118 22.628 99.8118 23.3 99.8118 23.972C98.7665 24.196 97.7025 24.308 96.6198 24.308C94.9772 24.308 93.5025 24.0373 92.1958 23.496C90.9078 22.9547 89.8065 22.18 88.8918 21.172C87.9958 20.1453 87.3052 18.9133 86.8198 17.476C86.3532 16.02 86.1198 14.396 86.1198 12.604C86.1198 10.8867 86.3438 9.30933 86.7918 7.872C87.2398 6.416 87.9025 5.16533 88.7798 4.12C89.6758 3.056 90.7772 2.23467 92.0838 1.656C93.4092 1.05867 94.9398 0.759999 96.6758 0.759999ZM114.445 1.096C114.389 2.272 114.343 3.38267 114.305 4.428C114.287 5.47333 114.268 6.50933 114.249 7.536C114.231 8.544 114.212 9.57067 114.193 10.616C114.193 11.6427 114.193 12.744 114.193 13.92C114.193 15.3013 114.193 16.804 114.193 18.428C114.212 20.052 114.231 21.9093 114.249 24H109.601C109.639 22.88 109.667 21.7133 109.685 20.5C109.704 19.268 109.723 17.868 109.741 16.3H105.597C105.597 17.4013 105.597 18.5867 105.597 19.856C105.616 21.1067 105.635 22.488 105.653 24H101.005C101.024 23.1787 101.043 22.3387 101.061 21.48C101.08 20.6213 101.099 19.6973 101.117 18.708C101.136 17.7187 101.145 16.636 101.145 15.46C101.145 14.284 101.145 12.9773 101.145 11.54C101.145 10.2707 101.145 9.17867 101.145 8.264C101.145 7.33067 101.136 6.48133 101.117 5.716C101.117 4.95067 101.117 4.21333 101.117 3.504C101.117 2.776 101.117 1.97333 101.117 1.096H105.849C105.775 2.64533 105.719 4.08267 105.681 5.408C105.644 6.71467 105.616 8.04 105.597 9.384H109.741C109.741 8.52533 109.741 7.75067 109.741 7.06C109.741 6.35067 109.732 5.67867 109.713 5.044C109.713 4.39067 109.713 3.756 109.713 3.14C109.713 2.50533 109.713 1.824 109.713 1.096H114.445ZM130.946 1.068C130.983 3.79333 131.039 6.15467 131.114 8.152C131.188 10.1307 131.226 11.82 131.226 13.22C131.226 14.1347 131.198 15.0493 131.142 15.964C131.086 16.86 130.964 17.7187 130.778 18.54C130.591 19.3613 130.32 20.1267 129.966 20.836C129.63 21.5267 129.172 22.1333 128.594 22.656C128.034 23.1787 127.334 23.5893 126.494 23.888C125.654 24.168 124.655 24.308 123.498 24.308C122.303 24.308 121.276 24.1587 120.418 23.86C119.578 23.5427 118.868 23.1227 118.29 22.6C117.711 22.0773 117.244 21.4613 116.89 20.752C116.554 20.024 116.292 19.2493 116.106 18.428C115.919 17.6067 115.798 16.7573 115.742 15.88C115.686 15.0027 115.658 14.1253 115.658 13.248C115.658 12.5573 115.667 11.82 115.686 11.036C115.704 10.252 115.732 9.37467 115.77 8.404C115.807 7.43333 115.844 6.35067 115.882 5.156C115.938 3.96133 115.994 2.608 116.05 1.096H120.978C120.922 2.776 120.875 4.204 120.838 5.38C120.8 6.53733 120.763 7.508 120.726 8.292C120.707 9.076 120.688 9.70133 120.67 10.168C120.67 10.616 120.66 10.9613 120.642 11.204C120.642 11.4467 120.642 11.624 120.642 11.736C120.642 11.8293 120.642 11.904 120.642 11.96C120.642 13.7707 120.847 15.1333 121.258 16.048C121.668 16.9627 122.406 17.42 123.47 17.42C124.552 17.42 125.28 16.9253 125.654 15.936C126.046 14.9467 126.242 13.444 126.242 11.428C126.242 11.3347 126.242 11.232 126.242 11.12C126.242 10.9893 126.232 10.7933 126.214 10.532C126.214 10.2707 126.204 9.92533 126.186 9.496C126.186 9.048 126.167 8.46 126.13 7.732C126.111 6.98533 126.083 6.08 126.046 5.016C126.008 3.93333 125.962 2.62667 125.906 1.096L130.946 1.068ZM132.561 24C132.617 22.2267 132.654 20.4627 132.673 18.708C132.691 16.9347 132.701 15.2547 132.701 13.668C132.701 11.4093 132.682 9.26267 132.645 7.228C132.626 5.19333 132.598 3.14933 132.561 1.096C133.475 1.00267 134.39 0.927999 135.305 0.871999C136.238 0.797332 137.181 0.759999 138.133 0.759999C139.495 0.759999 140.774 0.862665 141.969 1.068C143.163 1.25467 144.199 1.61867 145.077 2.16C145.954 2.68267 146.645 3.41067 147.149 4.344C147.671 5.27733 147.933 6.48133 147.933 7.956C147.933 9.78533 147.55 11.2227 146.785 12.268C146.038 13.3133 145.021 14.0973 143.733 14.62L148.297 24H143.313L139.589 15.46C138.823 15.516 138.03 15.544 137.209 15.544C137.209 16.9813 137.218 18.3907 137.237 19.772C137.255 21.1533 137.311 22.5627 137.405 24H132.561ZM137.209 11.288C137.787 11.344 138.319 11.372 138.805 11.372C140.074 11.372 140.97 11.1387 141.493 10.672C142.034 10.1867 142.305 9.468 142.305 8.516C142.305 7.93733 142.221 7.47067 142.053 7.116C141.903 6.76133 141.689 6.48133 141.409 6.276C141.147 6.07067 140.83 5.93067 140.457 5.856C140.102 5.78133 139.719 5.744 139.309 5.744C139.01 5.744 138.674 5.76267 138.301 5.8C137.946 5.81867 137.582 5.856 137.209 5.912V11.288ZM149.049 24C149.105 22.2267 149.142 20.4627 149.161 18.708C149.18 16.9347 149.189 15.2547 149.189 13.668C149.189 11.4093 149.17 9.26267 149.133 7.228C149.114 5.19333 149.086 3.14933 149.049 1.096C149.964 1.00267 150.878 0.927999 151.793 0.871999C152.726 0.797332 153.669 0.759999 154.621 0.759999C155.984 0.759999 157.262 0.862665 158.457 1.068C159.652 1.25467 160.688 1.61867 161.565 2.16C162.442 2.68267 163.133 3.41067 163.637 4.344C164.16 5.27733 164.421 6.48133 164.421 7.956C164.421 9.78533 164.038 11.2227 163.273 12.268C162.526 13.3133 161.509 14.0973 160.221 14.62L164.785 24H159.801L156.077 15.46C155.312 15.516 154.518 15.544 153.697 15.544C153.697 16.9813 153.706 18.3907 153.725 19.772C153.744 21.1533 153.8 22.5627 153.893 24H149.049ZM153.697 11.288C154.276 11.344 154.808 11.372 155.293 11.372C156.562 11.372 157.458 11.1387 157.981 10.672C158.522 10.1867 158.793 9.468 158.793 8.516C158.793 7.93733 158.709 7.47067 158.541 7.116C158.392 6.76133 158.177 6.48133 157.897 6.276C157.636 6.07067 157.318 5.93067 156.945 5.856C156.59 5.78133 156.208 5.744 155.797 5.744C155.498 5.744 155.162 5.76267 154.789 5.8C154.434 5.81867 154.07 5.856 153.697 5.912V11.288ZM164.669 24L168.813 1.096H175.729L179.845 24H175.113L174.413 19.408H170.101L169.429 24H164.669ZM170.857 14.396H173.657L172.257 5.156L170.857 14.396ZM180.214 6.78C180.214 5.58533 180.438 4.60533 180.886 3.84C181.353 3.056 181.932 2.44 182.622 1.992C183.332 1.52533 184.106 1.208 184.946 1.04C185.805 0.853332 186.626 0.759999 187.41 0.759999C187.634 0.759999 187.914 0.769332 188.25 0.787998C188.605 0.806665 188.969 0.834665 189.342 0.871999C189.734 0.909332 190.126 0.965332 190.518 1.04C190.929 1.096 191.312 1.18 191.666 1.292C191.704 1.77733 191.732 2.23467 191.75 2.664C191.769 3.07467 191.778 3.55067 191.778 4.092C191.778 4.63333 191.769 5.156 191.75 5.66C191.732 6.14533 191.704 6.612 191.666 7.06C191.517 7.04133 191.321 7.01333 191.078 6.976C190.854 6.93867 190.612 6.91067 190.35 6.892C190.108 6.87333 189.856 6.85467 189.594 6.836C189.352 6.81733 189.118 6.808 188.894 6.808C187.998 6.808 187.345 6.948 186.934 7.228C186.524 7.508 186.318 7.89067 186.318 8.376C186.318 8.656 186.384 8.92667 186.514 9.188C186.645 9.43067 186.813 9.664 187.018 9.888C187.242 10.112 187.485 10.3267 187.746 10.532C188.026 10.7373 188.306 10.9333 188.586 11.12C189.034 11.4373 189.482 11.792 189.93 12.184C190.397 12.5573 190.817 13.0147 191.19 13.556C191.564 14.0787 191.872 14.6947 192.114 15.404C192.357 16.0947 192.478 16.8973 192.478 17.812C192.478 19.0067 192.273 20.0147 191.862 20.836C191.452 21.6573 190.92 22.3293 190.266 22.852C189.632 23.356 188.913 23.7293 188.11 23.972C187.326 24.196 186.542 24.308 185.758 24.308C185.404 24.308 184.965 24.28 184.442 24.224C183.938 24.1867 183.425 24.1213 182.902 24.028C182.38 23.9533 181.885 23.86 181.418 23.748C180.952 23.6173 180.578 23.468 180.298 23.3C180.224 22.964 180.158 22.6187 180.102 22.264C180.065 21.9093 180.046 21.5173 180.046 21.088C180.046 20.7893 180.056 20.4253 180.074 19.996C180.112 19.5667 180.149 19.128 180.186 18.68C180.224 18.232 180.261 17.8027 180.298 17.392C180.354 16.9813 180.401 16.636 180.438 16.356C180.644 16.468 180.942 16.5987 181.334 16.748C181.726 16.8787 182.146 17.0093 182.594 17.14C183.061 17.2707 183.528 17.3827 183.994 17.476C184.461 17.5693 184.872 17.616 185.226 17.616C185.824 17.616 186.272 17.4947 186.57 17.252C186.869 16.9907 187.018 16.6453 187.018 16.216C187.018 15.7493 186.85 15.3387 186.514 14.984C186.178 14.6107 185.758 14.2467 185.254 13.892C184.75 13.5373 184.2 13.164 183.602 12.772C183.024 12.3613 182.482 11.8853 181.978 11.344C181.474 10.8027 181.054 10.168 180.718 9.44C180.382 8.69333 180.214 7.80667 180.214 6.78Z"
            fill="#E6E8E1" />
    </g>
    <defs>
        <filter id="filter0_d_2_33" x="0.279999" y="0.759998" width="196.198" height="31.548"
            filterUnits="userSpaceOnUse" color-interpolation-filters="sRGB">
            <feFlood flood-opacity="0" result="BackgroundImageFix" />
            <feColorMatrix in="SourceAlpha" type="matrix" values="0 0 0 0 0 0 0 0 0 0 0 0 0 0 0 0 0 0 127 0"
                result="hardAlpha" />
            <feOffset dy="4" />
            <feGaussianBlur stdDeviation="2" />
            <feComposite in2="hardAlpha" operator="out" />
            <feColorMatrix type="matrix" values="0 0 0 0 0 0 0 0 0 0 0 0 0 0 0 0 0 0 0.25 0" />
            <feBlend mode="normal" in2="BackgroundImageFix" result="effect1_dropShadow_2_33" />
            <feBlend mode="normal" in="SourceGraphic" in2="effect1_dropShadow_2_33" result="shape" />
        </filter>
    </defs>
</svg>